{
  "accessors": [
    {
      "bufferView": 2,
      "componentType": 5126,
      "count": 8488,
      "max": [
        2.141993999481201,
        2.163130044937134,
        5.245316028594971
      ],
      "min": [
        -2.449911117553711,
        -2.1586289405822754,
        0.01293100044131279
      ],
      "type": "VEC3"
    },
    {
      "bufferView": 2,
      "byteOffset": 101856,
      "componentType": 5126,
      "count": 8488,
      "max": [
        0.9999170303344727,
        0.9998189806938171,
        0.9999644756317139
      ],
      "min": [
        -0.9999709129333496,
        -0.9999998807907104,
        -0.9999998807907104
      ],
      "type": "VEC3"
    },
    {
      "bufferView": 3,
      "componentType": 5126,
      "count": 8488,
      "max": [
        0.9998624920845032,
        0.9994835257530212,
        0.9857421517372131,
        1.0
      ],
      "min": [
        -0.9905555248260498,
        -0.9995819330215454,
        -0.9986917972564697,
        -1.0
      ],
      "type": "VEC4"
    },
    {
      "bufferView": 1,
      "componentType": 5126,
      "count": 8488,
      "max": [
        1.0,
        0.960972011089325
      ],
      "min": [
        0.0,
        0.0
      ],
      "type": "VEC2"
    },
    {
      "bufferView": 0,
      "componentType": 5125,
      "count": 39552,
      "type": "SCALAR"
    }
  ],
  "asset": {
    "extras": {
      "author": "Lassi Kaukonen (https://sketchfab.com/thesidekick)",
      "license": "CC-BY-4.0 (http://creativecommons.org/licenses/by/4.0/)",
      "source": "https://sketchfab.com/3d-models/globe-f219f29dbd7f4b28be84c92e5c9507e6",
      "title": "Globe"
    },
    "generator": "Sketchfab-13.4.0",
    "version": "2.0"
  },
  "bufferViews": [
    {
      "buffer": 0,
      "byteLength": 158208,
      "name": "floatBufferViews",
      "target": 34963
    },
    {
      "buffer": 0,
      "byteLength": 67904,
      "byteOffset": 158208,
      "byteStride": 8,
      "name": "floatBufferViews",
      "target": 34962
    },
    {
      "buffer": 0,
      "byteLength": 203712,
      "byteOffset": 226112,
      "byteStride": 12,
      "name": "floatBufferViews",
      "target": 34962
    },
    {
      "buffer": 0,
      "byteLength": 135808,
      "byteOffset": 429824,
      "byteStride": 16,
      "name": "floatBufferViews",
      "target": 34962
    }
  ],
  "buffers": [
    {
      "byteLength": 565632,
      "uri": "scene.bin"
    }
  ],
  "images": [
    {
      "uri": "textures/Solid.002_baseColor.jpeg"
    },
    {
      "uri": "textures/Solid.002_metallicRoughness.png"
    },
    {
      "uri": "textures/Solid.002_normal.png"
    }
  ],
  "materials": [
    {
      "doubleSided": true,
      "name": "Solid.002",
      "normalTexture": {
        "index": 2,
        "scale": 0.28495324938133143
      },
      "occlusionTexture": {
        "index": 1
      },
      "pbrMetallicRoughness": {
        "baseColorTexture": {
          "index": 0
        },
        "metallicFactor": 0.0,
        "metallicRoughnessTexture": {
          "index": 1
        },
        "roughnessFactor": 0.38590289037071357
      }
    }
  ],
  "meshes": [
    {
      "name": "Object_0",
      "primitives": [
        {
          "attributes": {
            "NORMAL": 1,
            "POSITION": 0,
            "TANGENT": 2,
            "TEXCOORD_0": 3
          },
          "indices": 4,
          "material": 0,
          "mode": 4
        }
      ]
    }
  ],
  "nodes": [
    {
      "children": [
        1
      ],
      "matrix": [
        1.0,
        0.0,
        0.0,
        0.0,
        0.0,
        2.220446049250313e-16,
        -1.0,
        0.0,
        0.0,
        1.0,
        2.220446049250313e-16,
        0.0,
        0.0,
        0.0,
        0.0,
        1.0
      ],
      "name": "Sketchfab_model"
    },
    {
      "children": [
        2
      ],
      "name": "Globe_SF.obj.cleaner.materialmerger.gles"
    },
    {
      "mesh": 0,
      "name": "Object_2"
    }
  ],
  "samplers": [
    {
      "magFilter": 9729,
      "minFilter": 9987,
      "wrapS": 10497,
      "wrapT": 10497
    }
  ],
  "scene": 0,
  "scenes": [
    {
      "name": "Sketchfab_Scene",
      "nodes": [
        0
      ]
    }
  ],
  "textures": [
    {
      "sampler": 0,
      "source": 0
    },
    {
      "sampler": 0,
      "source": 1
    },
    {
      "sampler": 0,
      "source": 2
    }
  ]
}
